<mxfile host="app.diagrams.net" modified="2023-12-02T12:23:08.000Z" agent="Mozilla/5.0 (X11; Ubuntu; Linux x86_64; rv:109.0) Gecko/20100101 Firefox/118.0" etag="owqKrLyMtXF3i80jMFMp" version="22.1.5" type="github">
  <diagram name="PÃ¡gina-1" id="iMgOKBG-prg0mPuShW58">
    <mxGraphModel dx="4412" dy="1930" grid="1" gridSize="10" guides="1" tooltips="1" connect="1" arrows="1" fold="1" page="1" pageScale="1" pageWidth="827" pageHeight="1169" math="0" shadow="0">
      <root>
        <mxCell id="0" />
        <mxCell id="1" parent="0" />
        <mxCell id="aPB0tmIFXiKf7BXx3cor-28" style="edgeStyle=orthogonalEdgeStyle;rounded=0;orthogonalLoop=1;jettySize=auto;html=1;exitX=0.5;exitY=0;exitDx=0;exitDy=0;entryX=0.5;entryY=0;entryDx=0;entryDy=0;" edge="1" parent="1" source="aPB0tmIFXiKf7BXx3cor-1" target="aPB0tmIFXiKf7BXx3cor-4">
          <mxGeometry relative="1" as="geometry">
            <Array as="points">
              <mxPoint x="-206" y="362" />
              <mxPoint x="864" y="362" />
            </Array>
          </mxGeometry>
        </mxCell>
        <mxCell id="aPB0tmIFXiKf7BXx3cor-1" value="Aprobada" style="rounded=1;whiteSpace=wrap;html=1;direction=east;" vertex="1" parent="1">
          <mxGeometry x="-266" y="452" width="120" height="60" as="geometry" />
        </mxCell>
        <mxCell id="aPB0tmIFXiKf7BXx3cor-13" style="edgeStyle=orthogonalEdgeStyle;rounded=0;orthogonalLoop=1;jettySize=auto;html=1;" edge="1" parent="1" source="aPB0tmIFXiKf7BXx3cor-2">
          <mxGeometry relative="1" as="geometry">
            <mxPoint x="-176" y="452" as="targetPoint" />
            <Array as="points">
              <mxPoint x="174" y="412" />
              <mxPoint x="-176" y="412" />
              <mxPoint x="-176" y="452" />
            </Array>
          </mxGeometry>
        </mxCell>
        <mxCell id="aPB0tmIFXiKf7BXx3cor-2" value="Reservada" style="rounded=1;whiteSpace=wrap;html=1;" vertex="1" parent="1">
          <mxGeometry x="144" y="452" width="120" height="60" as="geometry" />
        </mxCell>
        <mxCell id="aPB0tmIFXiKf7BXx3cor-3" value="&lt;div&gt;Pendiente de&amp;nbsp;&lt;/div&gt;&lt;div&gt;limpieza&lt;/div&gt;" style="rounded=1;whiteSpace=wrap;html=1;" vertex="1" parent="1">
          <mxGeometry x="474" y="452" width="120" height="60" as="geometry" />
        </mxCell>
        <mxCell id="aPB0tmIFXiKf7BXx3cor-4" value="&lt;div&gt;Pendiente de&lt;/div&gt;&lt;div&gt;Aprobacion&lt;br&gt;&lt;/div&gt;" style="rounded=1;whiteSpace=wrap;html=1;" vertex="1" parent="1">
          <mxGeometry x="804" y="452" width="120" height="60" as="geometry" />
        </mxCell>
        <mxCell id="aPB0tmIFXiKf7BXx3cor-5" value="" style="endArrow=classic;html=1;rounded=0;exitX=1;exitY=0.5;exitDx=0;exitDy=0;entryX=0;entryY=0.5;entryDx=0;entryDy=0;" edge="1" parent="1" source="aPB0tmIFXiKf7BXx3cor-1" target="aPB0tmIFXiKf7BXx3cor-2">
          <mxGeometry width="50" height="50" relative="1" as="geometry">
            <mxPoint x="84" y="552" as="sourcePoint" />
            <mxPoint x="134" y="502" as="targetPoint" />
          </mxGeometry>
        </mxCell>
        <mxCell id="aPB0tmIFXiKf7BXx3cor-8" value="" style="endArrow=classic;html=1;rounded=0;exitX=1;exitY=0.5;exitDx=0;exitDy=0;entryX=0;entryY=0.5;entryDx=0;entryDy=0;" edge="1" parent="1" source="aPB0tmIFXiKf7BXx3cor-3" target="aPB0tmIFXiKf7BXx3cor-4">
          <mxGeometry width="50" height="50" relative="1" as="geometry">
            <mxPoint x="84" y="552" as="sourcePoint" />
            <mxPoint x="134" y="502" as="targetPoint" />
          </mxGeometry>
        </mxCell>
        <mxCell id="aPB0tmIFXiKf7BXx3cor-9" value="" style="endArrow=classic;html=1;rounded=0;entryX=0.5;entryY=1;entryDx=0;entryDy=0;" edge="1" parent="1" target="aPB0tmIFXiKf7BXx3cor-1">
          <mxGeometry width="50" height="50" relative="1" as="geometry">
            <mxPoint x="-206" y="572" as="sourcePoint" />
            <mxPoint x="134" y="502" as="targetPoint" />
          </mxGeometry>
        </mxCell>
        <mxCell id="aPB0tmIFXiKf7BXx3cor-10" value="" style="ellipse;whiteSpace=wrap;html=1;aspect=fixed;" vertex="1" parent="1">
          <mxGeometry x="-216" y="572" width="20" height="20" as="geometry" />
        </mxCell>
        <mxCell id="aPB0tmIFXiKf7BXx3cor-11" value="reservarHabitacion( Habitacion hab, String huesped )" style="text;html=1;strokeColor=none;fillColor=none;align=center;verticalAlign=middle;whiteSpace=wrap;rounded=0;" vertex="1" parent="1">
          <mxGeometry x="-146" y="482" width="290" height="30" as="geometry" />
        </mxCell>
        <mxCell id="aPB0tmIFXiKf7BXx3cor-14" value="terminarReserva( Habitacion hab )" style="text;html=1;strokeColor=none;fillColor=none;align=center;verticalAlign=middle;whiteSpace=wrap;rounded=0;" vertex="1" parent="1">
          <mxGeometry x="-103.5" y="382" width="205" height="30" as="geometry" />
        </mxCell>
        <mxCell id="aPB0tmIFXiKf7BXx3cor-16" value="" style="endArrow=classic;html=1;rounded=0;exitX=1;exitY=0.5;exitDx=0;exitDy=0;entryX=0;entryY=0.5;entryDx=0;entryDy=0;" edge="1" parent="1" source="aPB0tmIFXiKf7BXx3cor-2" target="aPB0tmIFXiKf7BXx3cor-3">
          <mxGeometry width="50" height="50" relative="1" as="geometry">
            <mxPoint x="264" y="482" as="sourcePoint" />
            <mxPoint x="624" y="482" as="targetPoint" />
          </mxGeometry>
        </mxCell>
        <mxCell id="aPB0tmIFXiKf7BXx3cor-15" value="liberarHabitacion( Habitacion hab )" style="text;html=1;strokeColor=none;fillColor=none;align=center;verticalAlign=middle;whiteSpace=wrap;rounded=0;" vertex="1" parent="1">
          <mxGeometry x="264" y="477" width="210" height="30" as="geometry" />
        </mxCell>
        <mxCell id="aPB0tmIFXiKf7BXx3cor-17" value="limpiarHabitacion( Habitacion&amp;nbsp; hab )" style="text;html=1;strokeColor=none;fillColor=none;align=center;verticalAlign=middle;whiteSpace=wrap;rounded=0;" vertex="1" parent="1">
          <mxGeometry x="594" y="482" width="210" height="30" as="geometry" />
        </mxCell>
        <mxCell id="aPB0tmIFXiKf7BXx3cor-20" value="" style="edgeStyle=orthogonalEdgeStyle;rounded=0;orthogonalLoop=1;jettySize=auto;html=1;entryX=0.75;entryY=1;entryDx=0;entryDy=0;" edge="1" parent="1" source="aPB0tmIFXiKf7BXx3cor-4" target="aPB0tmIFXiKf7BXx3cor-1">
          <mxGeometry relative="1" as="geometry">
            <mxPoint x="834" y="512" as="sourcePoint" />
            <mxPoint x="-176" y="512" as="targetPoint" />
            <Array as="points">
              <mxPoint x="834" y="702" />
              <mxPoint x="-176" y="702" />
            </Array>
          </mxGeometry>
        </mxCell>
        <mxCell id="aPB0tmIFXiKf7BXx3cor-19" value="aprobarLimpieza( Habitacion hab, String supervisor, boolean aprobar = true )" style="text;html=1;strokeColor=none;fillColor=none;align=center;verticalAlign=middle;whiteSpace=wrap;rounded=0;" vertex="1" parent="1">
          <mxGeometry x="101.5" y="707" width="420" height="30" as="geometry" />
        </mxCell>
        <mxCell id="aPB0tmIFXiKf7BXx3cor-29" value="aprobarLimpieza( Habitacion hab, String supervisor, boolean aprobar = false )" style="text;html=1;strokeColor=none;fillColor=none;align=center;verticalAlign=middle;whiteSpace=wrap;rounded=0;" vertex="1" parent="1">
          <mxGeometry x="84" y="332" width="420" height="30" as="geometry" />
        </mxCell>
        <mxCell id="aPB0tmIFXiKf7BXx3cor-30" style="edgeStyle=orthogonalEdgeStyle;rounded=0;orthogonalLoop=1;jettySize=auto;html=1;exitX=0.25;exitY=1;exitDx=0;exitDy=0;entryX=0.692;entryY=1.033;entryDx=0;entryDy=0;entryPerimeter=0;" edge="1" parent="1" source="aPB0tmIFXiKf7BXx3cor-2" target="aPB0tmIFXiKf7BXx3cor-2">
          <mxGeometry relative="1" as="geometry">
            <Array as="points">
              <mxPoint x="174" y="552" />
              <mxPoint x="227" y="552" />
            </Array>
          </mxGeometry>
        </mxCell>
        <mxCell id="aPB0tmIFXiKf7BXx3cor-31" style="edgeStyle=orthogonalEdgeStyle;rounded=0;orthogonalLoop=1;jettySize=auto;html=1;exitX=0.25;exitY=1;exitDx=0;exitDy=0;entryX=0.75;entryY=1;entryDx=0;entryDy=0;" edge="1" parent="1" source="aPB0tmIFXiKf7BXx3cor-3" target="aPB0tmIFXiKf7BXx3cor-3">
          <mxGeometry relative="1" as="geometry">
            <Array as="points">
              <mxPoint x="504" y="552" />
              <mxPoint x="564" y="552" />
            </Array>
          </mxGeometry>
        </mxCell>
        <mxCell id="aPB0tmIFXiKf7BXx3cor-32" value="&lt;div align=&quot;left&quot;&gt;reservarHabitacion( Habitacion hab, String huesped )&lt;/div&gt;&lt;div align=&quot;left&quot;&gt;limpiarHabitacion( Habitacion hab )&lt;/div&gt;&lt;div align=&quot;left&quot;&gt;&lt;div&gt;aprobarLimpieza(&amp;nbsp; Habitacion hab, String supervisor, boolean aprobar )&lt;/div&gt;&lt;/div&gt;&lt;div align=&quot;left&quot;&gt;getInfoEstado( Habitacion hab )&lt;br&gt;&lt;/div&gt;&lt;div align=&quot;left&quot;&gt;&lt;br&gt;&lt;/div&gt;" style="text;html=1;strokeColor=none;fillColor=none;align=left;verticalAlign=middle;whiteSpace=wrap;rounded=0;" vertex="1" parent="1">
          <mxGeometry x="34" y="552" width="405" height="90" as="geometry" />
        </mxCell>
        <mxCell id="aPB0tmIFXiKf7BXx3cor-34" value="&lt;div align=&quot;left&quot;&gt;reservarHabitacion( Habitacion hab, String huesped )&lt;/div&gt;&lt;div align=&quot;left&quot;&gt;terminarReserva( Habitacion hab )&lt;/div&gt;&lt;div align=&quot;left&quot;&gt;liberarHabitacion( Habitacion hab )&lt;br&gt;&lt;/div&gt;&lt;div align=&quot;left&quot;&gt;aprobarLimpieza(&amp;nbsp; Habitacion hab, String supervisor, boolean aprobar )&lt;/div&gt;&lt;div align=&quot;left&quot;&gt;getInfoEstado( Habitacion hab )&lt;br&gt;&lt;/div&gt;" style="text;html=1;strokeColor=none;fillColor=none;align=left;verticalAlign=middle;whiteSpace=wrap;rounded=0;" vertex="1" parent="1">
          <mxGeometry x="444" y="552" width="385" height="90" as="geometry" />
        </mxCell>
        <mxCell id="aPB0tmIFXiKf7BXx3cor-35" value="&lt;div align=&quot;left&quot;&gt;aprobarLimpieza( Habitacion hab, String supervisor, boolean aprobar = false )&lt;/div&gt;&lt;div align=&quot;left&quot;&gt;reservarHabitacion( Habitacion hab, String huesped )&lt;/div&gt;&lt;div align=&quot;left&quot;&gt;terminarReserva( Habitacion hab )&lt;/div&gt;&lt;div align=&quot;left&quot;&gt;liberarHabitacion( Habitacion hab )&lt;br&gt;&lt;/div&gt;&lt;div align=&quot;left&quot;&gt;limpiarHabitacion(&amp;nbsp; Habitacion hab )&lt;/div&gt;&lt;div align=&quot;left&quot;&gt;getInfoEstado( Habitacion hab )&lt;br&gt;&lt;/div&gt;" style="text;html=1;strokeColor=none;fillColor=none;align=left;verticalAlign=middle;whiteSpace=wrap;rounded=0;" vertex="1" parent="1">
          <mxGeometry x="984" y="462" width="440" height="100" as="geometry" />
        </mxCell>
        <mxCell id="aPB0tmIFXiKf7BXx3cor-36" style="edgeStyle=orthogonalEdgeStyle;rounded=0;orthogonalLoop=1;jettySize=auto;html=1;exitX=1;exitY=0.25;exitDx=0;exitDy=0;" edge="1" parent="1" source="aPB0tmIFXiKf7BXx3cor-4" target="aPB0tmIFXiKf7BXx3cor-4">
          <mxGeometry relative="1" as="geometry">
            <Array as="points">
              <mxPoint x="964" y="467" />
              <mxPoint x="964" y="552" />
              <mxPoint x="864" y="552" />
            </Array>
          </mxGeometry>
        </mxCell>
        <mxCell id="aPB0tmIFXiKf7BXx3cor-37" style="edgeStyle=orthogonalEdgeStyle;rounded=0;orthogonalLoop=1;jettySize=auto;html=1;exitX=0;exitY=0.25;exitDx=0;exitDy=0;entryX=0.25;entryY=1;entryDx=0;entryDy=0;" edge="1" parent="1" source="aPB0tmIFXiKf7BXx3cor-1" target="aPB0tmIFXiKf7BXx3cor-1">
          <mxGeometry relative="1" as="geometry" />
        </mxCell>
        <mxCell id="aPB0tmIFXiKf7BXx3cor-41" value="&lt;div align=&quot;left&quot;&gt;aprobarLimpieza( Habitacion hab, String supervisor, boolean aprobar = true )&lt;/div&gt;&lt;div align=&quot;left&quot;&gt;terminarReserva( Habitacion hab )&lt;/div&gt;&lt;div align=&quot;left&quot;&gt;liberarHabitacion( Habitacion hab )&lt;br&gt;&lt;/div&gt;&lt;div align=&quot;left&quot;&gt;limpiarHabitacion(&amp;nbsp; Habitacion hab )&lt;/div&gt;&lt;div align=&quot;left&quot;&gt;getInfoEstado( Habitacion hab )&lt;br&gt;&lt;/div&gt;" style="text;html=1;strokeColor=none;fillColor=none;align=left;verticalAlign=middle;whiteSpace=wrap;rounded=0;" vertex="1" parent="1">
          <mxGeometry x="-706" y="452" width="440" height="100" as="geometry" />
        </mxCell>
      </root>
    </mxGraphModel>
  </diagram>
</mxfile>
